<?xml version="1.0" standalone="no"?><!DOCTYPE svg PUBLIC "-//W3C//DTD SVG 1.1//EN" "http://www.w3.org/Graphics/SVG/1.1/DTD/svg11.dtd"><svg t="1685466203222" class="icon" viewBox="0 0 1024 1024" version="1.1" xmlns="http://www.w3.org/2000/svg" p-id="16375" xmlns:xlink="http://www.w3.org/1999/xlink" width="64" height="64"><path d="M512 523.848232m-355.639035 0a355.639035 355.639035 0 1 0 711.27807 0 355.639035 355.639035 0 1 0-711.27807 0Z" fill="#ffffff" p-id="16376"></path><path d="M512 407.905761m-161.35608 0a161.35608 161.35608 0 1 0 322.71216 0 161.35608 161.35608 0 1 0-322.71216 0Z" fill="#515151" p-id="16377"></path><path d="M512 121.318097c-222.311048 0-402.530135 180.218786-402.530135 402.530135s180.218786 402.530135 402.530135 402.530136 402.530135-180.218786 402.530135-402.530136S734.311349 121.318097 512 121.318097z m0 758.16917c-196.413999 0-355.639035-159.225035-355.639035-355.639035S315.586001 168.209198 512 168.209198s355.639035 159.225035 355.639035 355.639034-159.225035 355.639035-355.639035 355.639035z" fill="#515151" p-id="16378"></path><path d="M228.006978 761.925817a281.175913 151.722881 0 1 0 562.351827 0 281.175913 151.722881 0 1 0-562.351827 0Z" fill="#515151" p-id="16379"></path></svg>