<?xml version="1.0" standalone="no"?><!DOCTYPE svg PUBLIC "-//W3C//DTD SVG 1.1//EN" "http://www.w3.org/Graphics/SVG/1.1/DTD/svg11.dtd"><svg t="1685244233018" class="icon" viewBox="0 0 1024 1024" version="1.1" xmlns="http://www.w3.org/2000/svg" p-id="4236" xmlns:xlink="http://www.w3.org/1999/xlink" width="64" height="64"><path d="M874.666667 426.666667h-725.333334a64 64 0 0 0-64 64v469.333333a64 64 0 0 0 64 64h725.333334a64 64 0 0 0 64-64v-469.333333a64 64 0 0 0-64-64z m-21.333334 85.333333v426.666667h-682.666666v-426.666667h682.666666z" fill="#000000" p-id="4237"></path><path d="M512 0a256 256 0 0 0-256 256v256h512v-256a256 256 0 0 0-256-256z m8.533333 85.546667A170.666667 170.666667 0 0 1 682.666667 256v170.666667h-341.333334v-170.666667a170.666667 170.666667 0 0 1 170.666667-170.666667l8.533333 0.213334z" fill="#000000" p-id="4238"></path><path d="M469.333333 597.333333m42.666667 0l0 0q42.666667 0 42.666667 42.666667l0 170.666667q0 42.666667-42.666667 42.666666l0 0q-42.666667 0-42.666667-42.666666l0-170.666667q0-42.666667 42.666667-42.666667Z" fill="#000000" p-id="4239"></path></svg>